<svg xmlns="http://www.w3.org/2000/svg" xmlns:xlink="http://www.w3.org/1999/xlink" width="420" zoomAndPan="magnify" viewBox="0 0 315 67.499998" height="90" preserveAspectRatio="xMidYMid meet" version="1.0"><defs><g/></defs><g fill="#000000" fill-opacity="1"><g transform="translate(9.496328, 41.393379)"><g><path d="M 6.5 -19.046875 C 6.5 -18.359375 6.769531 -17.796875 7.3125 -17.359375 C 7.851562 -16.929688 8.578125 -16.578125 9.484375 -16.296875 C 10.390625 -16.023438 11.375 -15.757812 12.4375 -15.5 C 13.507812 -15.25 14.582031 -14.941406 15.65625 -14.578125 C 16.726562 -14.222656 17.710938 -13.753906 18.609375 -13.171875 C 19.515625 -12.585938 20.238281 -11.828125 20.78125 -10.890625 C 21.320312 -9.960938 21.59375 -8.789062 21.59375 -7.375 C 21.59375 -5.820312 21.140625 -4.460938 20.234375 -3.296875 C 19.335938 -2.128906 18.125 -1.234375 16.59375 -0.609375 C 15.0625 0.015625 13.335938 0.328125 11.421875 0.328125 C 9.503906 0.328125 7.773438 -0.03125 6.234375 -0.75 C 4.691406 -1.46875 3.445312 -2.519531 2.5 -3.90625 C 1.550781 -5.300781 0.992188 -6.972656 0.828125 -8.921875 L 6.296875 -8.921875 C 6.765625 -6.085938 8.539062 -4.671875 11.625 -4.671875 C 13.070312 -4.671875 14.226562 -4.910156 15.09375 -5.390625 C 15.957031 -5.878906 16.390625 -6.539062 16.390625 -7.375 C 16.390625 -8.101562 16.113281 -8.664062 15.5625 -9.0625 C 15.019531 -9.46875 14.296875 -9.800781 13.390625 -10.0625 C 12.492188 -10.332031 11.507812 -10.582031 10.4375 -10.8125 C 9.375 -11.050781 8.304688 -11.335938 7.234375 -11.671875 C 6.160156 -12.003906 5.171875 -12.445312 4.265625 -13 C 3.367188 -13.5625 2.648438 -14.289062 2.109375 -15.1875 C 1.566406 -16.09375 1.296875 -17.253906 1.296875 -18.671875 C 1.296875 -20.367188 1.722656 -21.804688 2.578125 -22.984375 C 3.441406 -24.171875 4.601562 -25.066406 6.0625 -25.671875 C 7.519531 -26.285156 9.140625 -26.59375 10.921875 -26.59375 C 13.722656 -26.59375 16.023438 -25.847656 17.828125 -24.359375 C 19.640625 -22.878906 20.601562 -20.789062 20.71875 -18.09375 L 15.25 -18.09375 C 15.03125 -19.375 14.53125 -20.273438 13.75 -20.796875 C 12.976562 -21.328125 12.007812 -21.59375 10.84375 -21.59375 C 9.445312 -21.59375 8.375 -21.347656 7.625 -20.859375 C 6.875 -20.378906 6.5 -19.773438 6.5 -19.046875 Z M 6.5 -19.046875 "/></g></g></g><g fill="#000000" fill-opacity="1"><g transform="translate(31.509262, 41.393379)"><g><path d="M 33.59375 -12.09375 L 33.59375 0 L 28.59375 0 L 28.59375 -10.84375 C 28.59375 -12.59375 28.242188 -13.863281 27.546875 -14.65625 C 26.859375 -15.445312 25.890625 -15.84375 24.640625 -15.84375 C 23.328125 -15.84375 22.21875 -15.476562 21.3125 -14.75 C 20.414062 -14.03125 19.816406 -13.101562 19.515625 -11.96875 L 19.515625 -12 L 19.515625 0 L 14.5 0 L 14.5 -10.84375 C 14.5 -12.59375 14.148438 -13.863281 13.453125 -14.65625 C 12.765625 -15.445312 11.796875 -15.84375 10.546875 -15.84375 C 9.710938 -15.84375 8.984375 -15.695312 8.359375 -15.40625 C 7.734375 -15.113281 7.195312 -14.769531 6.75 -14.375 C 6.3125 -13.988281 5.976562 -13.648438 5.75 -13.359375 C 5.53125 -13.066406 5.421875 -12.921875 5.421875 -12.921875 L 5.421875 0 L 0.421875 0 L 0.421875 -20.421875 L 5 -20.421875 L 5.421875 -17.890625 C 7.035156 -19.722656 9.117188 -20.640625 11.671875 -20.640625 C 13.203125 -20.640625 14.554688 -20.265625 15.734375 -19.515625 C 16.921875 -18.765625 17.832031 -17.75 18.46875 -16.46875 C 20.21875 -19.25 22.648438 -20.640625 25.765625 -20.640625 C 27.296875 -20.640625 28.644531 -20.269531 29.8125 -19.53125 C 30.976562 -18.789062 31.898438 -17.773438 32.578125 -16.484375 C 33.253906 -15.191406 33.59375 -13.726562 33.59375 -12.09375 Z M 33.59375 -12.09375 "/></g></g></g><g fill="#000000" fill-opacity="1"><g transform="translate(65.529259, 41.393379)"><g><path d="M 16.765625 -10.125 C 16.765625 -11.875 16.195312 -13.265625 15.0625 -14.296875 C 13.9375 -15.328125 12.570312 -15.84375 10.96875 -15.84375 C 9.40625 -15.84375 8.066406 -15.328125 6.953125 -14.296875 C 5.847656 -13.265625 5.296875 -11.875 5.296875 -10.125 C 5.296875 -8.40625 5.847656 -7.03125 6.953125 -6 C 8.066406 -4.96875 9.40625 -4.453125 10.96875 -4.453125 C 12.570312 -4.453125 13.9375 -4.96875 15.0625 -6 C 16.195312 -7.03125 16.765625 -8.40625 16.765625 -10.125 Z M 16.765625 -18.015625 L 16.765625 -20.421875 L 21.765625 -20.421875 L 21.765625 0 L 17.171875 0 L 16.796875 -2.328125 C 15.929688 -1.472656 14.953125 -0.816406 13.859375 -0.359375 C 12.765625 0.0976562 11.617188 0.328125 10.421875 0.328125 C 8.554688 0.328125 6.863281 -0.117188 5.34375 -1.015625 C 3.832031 -1.921875 2.632812 -3.160156 1.75 -4.734375 C 0.863281 -6.304688 0.421875 -8.101562 0.421875 -10.125 C 0.421875 -12.1875 0.863281 -14 1.75 -15.5625 C 2.632812 -17.132812 3.832031 -18.375 5.34375 -19.28125 C 6.863281 -20.1875 8.554688 -20.640625 10.421875 -20.640625 C 12.890625 -20.640625 15.003906 -19.765625 16.765625 -18.015625 Z M 16.765625 -18.015625 "/></g></g></g><g fill="#000000" fill-opacity="1"><g transform="translate(87.917412, 41.393379)"><g><path d="M 12.046875 -20.640625 L 12.046875 -15.671875 L 11 -15.671875 C 10.03125 -15.671875 9.191406 -15.53125 8.484375 -15.25 C 7.773438 -14.976562 7.195312 -14.660156 6.75 -14.296875 C 6.3125 -13.929688 5.976562 -13.609375 5.75 -13.328125 C 5.53125 -13.054688 5.421875 -12.921875 5.421875 -12.921875 L 5.421875 0 L 0.421875 0 L 0.421875 -20.421875 L 5 -20.421875 L 5.421875 -17.671875 C 6.222656 -18.617188 7.191406 -19.347656 8.328125 -19.859375 C 9.472656 -20.378906 10.710938 -20.640625 12.046875 -20.640625 Z M 12.046875 -20.640625 "/></g></g></g><g fill="#000000" fill-opacity="1"><g transform="translate(100.424767, 41.393379)"><g><path d="M 1.671875 -15.625 L 0.421875 -15.625 L 0.421875 -20.421875 L 1.671875 -20.421875 L 2.078125 -24.890625 L 6.671875 -24.890625 L 6.671875 -20.421875 L 10.09375 -20.421875 L 10.09375 -15.625 L 6.671875 -15.625 L 6.671875 -7.84375 C 6.671875 -6.726562 6.878906 -5.941406 7.296875 -5.484375 C 7.710938 -5.023438 8.4375 -4.796875 9.46875 -4.796875 L 10.296875 -4.796875 L 10.296875 0 L 8.796875 0 C 6.515625 0 4.753906 -0.671875 3.515625 -2.015625 C 2.285156 -3.367188 1.671875 -5.3125 1.671875 -7.84375 Z M 1.671875 -15.625 "/></g></g></g><g fill="#000000" fill-opacity="1"><g transform="translate(111.139397, 41.393379)"><g/></g></g><g fill="#000000" fill-opacity="1"><g transform="translate(119.686084, 41.393379)"><g><path d="M 9.921875 -10.046875 L 15.84375 -10.046875 L 12.875 -18.21875 Z M 17.515625 -5.46875 L 8.25 -5.46875 L 6.25 0 L 0.828125 0 L 10.375 -26.265625 L 15.375 -26.265625 L 24.921875 0 L 19.515625 0 Z M 17.515625 -5.46875 "/></g></g></g><g fill="#000000" fill-opacity="1"><g transform="translate(142.94976, 41.393379)"><g><path d="M 21.140625 -11.921875 L 16.046875 -11.84375 C 15.742188 -13.0625 15.140625 -14.019531 14.234375 -14.71875 C 13.328125 -15.414062 12.25 -15.765625 11 -15.765625 C 9.476562 -15.765625 8.164062 -15.257812 7.0625 -14.25 C 5.96875 -13.25 5.421875 -11.890625 5.421875 -10.171875 C 5.421875 -8.453125 5.96875 -7.082031 7.0625 -6.0625 C 8.164062 -5.050781 9.476562 -4.546875 11 -4.546875 C 12.28125 -4.546875 13.367188 -4.898438 14.265625 -5.609375 C 15.171875 -6.316406 15.796875 -7.3125 16.140625 -8.59375 L 21.171875 -8.59375 C 21.003906 -6.84375 20.445312 -5.289062 19.5 -3.9375 C 18.5625 -2.59375 17.347656 -1.546875 15.859375 -0.796875 C 14.367188 -0.046875 12.75 0.328125 11 0.328125 C 9.0625 0.328125 7.289062 -0.117188 5.6875 -1.015625 C 4.09375 -1.921875 2.820312 -3.160156 1.875 -4.734375 C 0.925781 -6.304688 0.453125 -8.101562 0.453125 -10.125 C 0.453125 -12.1875 0.925781 -14 1.875 -15.5625 C 2.820312 -17.132812 4.09375 -18.375 5.6875 -19.28125 C 7.289062 -20.1875 9.0625 -20.640625 11 -20.640625 C 12.78125 -20.640625 14.40625 -20.265625 15.875 -19.515625 C 17.351562 -18.765625 18.5625 -17.726562 19.5 -16.40625 C 20.445312 -15.082031 20.992188 -13.585938 21.140625 -11.921875 Z M 21.140625 -11.921875 "/></g></g></g><g fill="#000000" fill-opacity="1"><g transform="translate(164.170566, 41.393379)"><g><path d="M 21.140625 -11.921875 L 16.046875 -11.84375 C 15.742188 -13.0625 15.140625 -14.019531 14.234375 -14.71875 C 13.328125 -15.414062 12.25 -15.765625 11 -15.765625 C 9.476562 -15.765625 8.164062 -15.257812 7.0625 -14.25 C 5.96875 -13.25 5.421875 -11.890625 5.421875 -10.171875 C 5.421875 -8.453125 5.96875 -7.082031 7.0625 -6.0625 C 8.164062 -5.050781 9.476562 -4.546875 11 -4.546875 C 12.28125 -4.546875 13.367188 -4.898438 14.265625 -5.609375 C 15.171875 -6.316406 15.796875 -7.3125 16.140625 -8.59375 L 21.171875 -8.59375 C 21.003906 -6.84375 20.445312 -5.289062 19.5 -3.9375 C 18.5625 -2.59375 17.347656 -1.546875 15.859375 -0.796875 C 14.367188 -0.046875 12.75 0.328125 11 0.328125 C 9.0625 0.328125 7.289062 -0.117188 5.6875 -1.015625 C 4.09375 -1.921875 2.820312 -3.160156 1.875 -4.734375 C 0.925781 -6.304688 0.453125 -8.101562 0.453125 -10.125 C 0.453125 -12.1875 0.925781 -14 1.875 -15.5625 C 2.820312 -17.132812 4.09375 -18.375 5.6875 -19.28125 C 7.289062 -20.1875 9.0625 -20.640625 11 -20.640625 C 12.78125 -20.640625 14.40625 -20.265625 15.875 -19.515625 C 17.351562 -18.765625 18.5625 -17.726562 19.5 -16.40625 C 20.445312 -15.082031 20.992188 -13.585938 21.140625 -11.921875 Z M 21.140625 -11.921875 "/></g></g></g><g fill="#000000" fill-opacity="1"><g transform="translate(185.391371, 41.393379)"><g><path d="M 0.453125 -10.125 C 0.453125 -12.1875 0.925781 -14 1.875 -15.5625 C 2.820312 -17.132812 4.09375 -18.375 5.6875 -19.28125 C 7.289062 -20.1875 9.0625 -20.640625 11 -20.640625 C 12.914062 -20.640625 14.671875 -20.1875 16.265625 -19.28125 C 17.867188 -18.375 19.144531 -17.132812 20.09375 -15.5625 C 21.039062 -14 21.515625 -12.1875 21.515625 -10.125 C 21.515625 -8.101562 21.039062 -6.304688 20.09375 -4.734375 C 19.144531 -3.160156 17.867188 -1.921875 16.265625 -1.015625 C 14.671875 -0.117188 12.914062 0.328125 11 0.328125 C 9.0625 0.328125 7.289062 -0.117188 5.6875 -1.015625 C 4.09375 -1.921875 2.820312 -3.160156 1.875 -4.734375 C 0.925781 -6.304688 0.453125 -8.101562 0.453125 -10.125 Z M 5.421875 -10.171875 C 5.421875 -8.453125 5.96875 -7.082031 7.0625 -6.0625 C 8.164062 -5.050781 9.476562 -4.546875 11 -4.546875 C 12.5 -4.546875 13.789062 -5.050781 14.875 -6.0625 C 15.96875 -7.082031 16.515625 -8.453125 16.515625 -10.171875 C 16.515625 -11.890625 15.96875 -13.25 14.875 -14.25 C 13.789062 -15.257812 12.5 -15.765625 11 -15.765625 C 9.476562 -15.765625 8.164062 -15.257812 7.0625 -14.25 C 5.96875 -13.25 5.421875 -11.890625 5.421875 -10.171875 Z M 5.421875 -10.171875 "/></g></g></g><g fill="#000000" fill-opacity="1"><g transform="translate(207.320924, 41.393379)"><g><path d="M 0.453125 -8.21875 L 0.453125 -20.421875 L 5.421875 -20.421875 L 5.421875 -9.421875 C 5.421875 -7.703125 5.785156 -6.441406 6.515625 -5.640625 C 7.253906 -4.847656 8.304688 -4.453125 9.671875 -4.453125 C 10.554688 -4.453125 11.347656 -4.601562 12.046875 -4.90625 C 12.742188 -5.21875 13.328125 -5.578125 13.796875 -5.984375 C 14.265625 -6.390625 14.625 -6.742188 14.875 -7.046875 C 15.125 -7.347656 15.25 -7.5 15.25 -7.5 L 15.25 -20.421875 L 20.265625 -20.421875 L 20.265625 0 L 15.890625 0 L 15.34375 -2.703125 C 14.476562 -1.734375 13.488281 -0.984375 12.375 -0.453125 C 11.269531 0.0664062 10.019531 0.328125 8.625 0.328125 C 7.039062 0.328125 5.632812 -0.0351562 4.40625 -0.765625 C 3.1875 -1.503906 2.222656 -2.519531 1.515625 -3.8125 C 0.804688 -5.101562 0.453125 -6.570312 0.453125 -8.21875 Z M 0.453125 -8.21875 "/></g></g></g><g fill="#000000" fill-opacity="1"><g transform="translate(228.208202, 41.393379)"><g><path d="M 20.21875 -12.09375 L 20.21875 0 L 15.25 0 L 15.25 -10.84375 C 15.25 -12.59375 14.890625 -13.863281 14.171875 -14.65625 C 13.453125 -15.445312 12.394531 -15.84375 11 -15.84375 C 10.113281 -15.84375 9.320312 -15.695312 8.625 -15.40625 C 7.9375 -15.113281 7.351562 -14.769531 6.875 -14.375 C 6.40625 -13.988281 6.046875 -13.648438 5.796875 -13.359375 C 5.546875 -13.066406 5.421875 -12.921875 5.421875 -12.921875 L 5.421875 0 L 0.421875 0 L 0.421875 -20.421875 L 5 -20.421875 L 5.421875 -17.71875 C 7.117188 -19.664062 9.328125 -20.640625 12.046875 -20.640625 C 13.628906 -20.640625 15.03125 -20.269531 16.25 -19.53125 C 17.476562 -18.789062 18.445312 -17.773438 19.15625 -16.484375 C 19.863281 -15.191406 20.21875 -13.726562 20.21875 -12.09375 Z M 20.21875 -12.09375 "/></g></g></g><g fill="#000000" fill-opacity="1"><g transform="translate(248.470115, 41.393379)"><g><path d="M 1.671875 -15.625 L 0.421875 -15.625 L 0.421875 -20.421875 L 1.671875 -20.421875 L 2.078125 -24.890625 L 6.671875 -24.890625 L 6.671875 -20.421875 L 10.09375 -20.421875 L 10.09375 -15.625 L 6.671875 -15.625 L 6.671875 -7.84375 C 6.671875 -6.726562 6.878906 -5.941406 7.296875 -5.484375 C 7.710938 -5.023438 8.4375 -4.796875 9.46875 -4.796875 L 10.296875 -4.796875 L 10.296875 0 L 8.796875 0 C 6.515625 0 4.753906 -0.671875 3.515625 -2.015625 C 2.285156 -3.367188 1.671875 -5.3125 1.671875 -7.84375 Z M 1.671875 -15.625 "/></g></g></g><g fill="#000000" fill-opacity="1"><g transform="translate(259.184745, 41.393379)"><g/></g></g><g fill="#000000" fill-opacity="1"><g transform="translate(267.731421, 41.393379)"><g><path d="M 20.796875 0 L 14.546875 0 L 7.09375 -10.46875 L 5.84375 -8.96875 L 5.84375 0 L 0.828125 0 L 0.828125 -26.265625 L 5.84375 -26.265625 L 5.84375 -16.390625 L 14.125 -26.265625 L 20.390625 -26.265625 L 10.375 -14.375 Z M 20.796875 0 "/></g></g></g><g fill="#000000" fill-opacity="1"><g transform="translate(288.53534, 41.393379)"><g><path d="M 0.453125 -23.84375 C 0.453125 -24.59375 0.722656 -25.238281 1.265625 -25.78125 C 1.804688 -26.320312 2.453125 -26.59375 3.203125 -26.59375 C 3.953125 -26.59375 4.59375 -26.320312 5.125 -25.78125 C 5.65625 -25.238281 5.921875 -24.59375 5.921875 -23.84375 C 5.921875 -23.09375 5.65625 -22.445312 5.125 -21.90625 C 4.59375 -21.363281 3.953125 -21.09375 3.203125 -21.09375 C 2.453125 -21.09375 1.804688 -21.363281 1.265625 -21.90625 C 0.722656 -22.445312 0.453125 -23.09375 0.453125 -23.84375 Z M 0.703125 0 L 0.703125 -20.421875 L 5.71875 -20.421875 L 5.71875 0 Z M 0.703125 0 "/></g></g></g><g fill="#000000" fill-opacity="1"><g transform="translate(294.74732, 41.393379)"><g><path d="M 1.671875 -15.625 L 0.421875 -15.625 L 0.421875 -20.421875 L 1.671875 -20.421875 L 2.078125 -24.890625 L 6.671875 -24.890625 L 6.671875 -20.421875 L 10.09375 -20.421875 L 10.09375 -15.625 L 6.671875 -15.625 L 6.671875 -7.84375 C 6.671875 -6.726562 6.878906 -5.941406 7.296875 -5.484375 C 7.710938 -5.023438 8.4375 -4.796875 9.46875 -4.796875 L 10.296875 -4.796875 L 10.296875 0 L 8.796875 0 C 6.515625 0 4.753906 -0.671875 3.515625 -2.015625 C 2.285156 -3.367188 1.671875 -5.3125 1.671875 -7.84375 Z M 1.671875 -15.625 "/></g></g></g><g fill="#000000" fill-opacity="1"><g transform="translate(9.496328, 41.393379)"><g><path d="M 6.5 -19.046875 C 6.5 -18.359375 6.769531 -17.796875 7.3125 -17.359375 C 7.851562 -16.929688 8.578125 -16.578125 9.484375 -16.296875 C 10.390625 -16.023438 11.375 -15.757812 12.4375 -15.5 C 13.507812 -15.25 14.582031 -14.941406 15.65625 -14.578125 C 16.726562 -14.222656 17.710938 -13.753906 18.609375 -13.171875 C 19.515625 -12.585938 20.238281 -11.828125 20.78125 -10.890625 C 21.320312 -9.960938 21.59375 -8.789062 21.59375 -7.375 C 21.59375 -5.820312 21.140625 -4.460938 20.234375 -3.296875 C 19.335938 -2.128906 18.125 -1.234375 16.59375 -0.609375 C 15.0625 0.015625 13.335938 0.328125 11.421875 0.328125 C 9.503906 0.328125 7.773438 -0.03125 6.234375 -0.75 C 4.691406 -1.46875 3.445312 -2.519531 2.5 -3.90625 C 1.550781 -5.300781 0.992188 -6.972656 0.828125 -8.921875 L 6.296875 -8.921875 C 6.765625 -6.085938 8.539062 -4.671875 11.625 -4.671875 C 13.070312 -4.671875 14.226562 -4.910156 15.09375 -5.390625 C 15.957031 -5.878906 16.390625 -6.539062 16.390625 -7.375 C 16.390625 -8.101562 16.113281 -8.664062 15.5625 -9.0625 C 15.019531 -9.46875 14.296875 -9.800781 13.390625 -10.0625 C 12.492188 -10.332031 11.507812 -10.582031 10.4375 -10.8125 C 9.375 -11.050781 8.304688 -11.335938 7.234375 -11.671875 C 6.160156 -12.003906 5.171875 -12.445312 4.265625 -13 C 3.367188 -13.5625 2.648438 -14.289062 2.109375 -15.1875 C 1.566406 -16.09375 1.296875 -17.253906 1.296875 -18.671875 C 1.296875 -20.367188 1.722656 -21.804688 2.578125 -22.984375 C 3.441406 -24.171875 4.601562 -25.066406 6.0625 -25.671875 C 7.519531 -26.285156 9.140625 -26.59375 10.921875 -26.59375 C 13.722656 -26.59375 16.023438 -25.847656 17.828125 -24.359375 C 19.640625 -22.878906 20.601562 -20.789062 20.71875 -18.09375 L 15.25 -18.09375 C 15.03125 -19.375 14.53125 -20.273438 13.75 -20.796875 C 12.976562 -21.328125 12.007812 -21.59375 10.84375 -21.59375 C 9.445312 -21.59375 8.375 -21.347656 7.625 -20.859375 C 6.875 -20.378906 6.5 -19.773438 6.5 -19.046875 Z M 6.5 -19.046875 "/></g></g></g><g fill="#000000" fill-opacity="1"><g transform="translate(31.509262, 41.393379)"><g><path d="M 33.59375 -12.09375 L 33.59375 0 L 28.59375 0 L 28.59375 -10.84375 C 28.59375 -12.59375 28.242188 -13.863281 27.546875 -14.65625 C 26.859375 -15.445312 25.890625 -15.84375 24.640625 -15.84375 C 23.328125 -15.84375 22.21875 -15.476562 21.3125 -14.75 C 20.414062 -14.03125 19.816406 -13.101562 19.515625 -11.96875 L 19.515625 -12 L 19.515625 0 L 14.5 0 L 14.5 -10.84375 C 14.5 -12.59375 14.148438 -13.863281 13.453125 -14.65625 C 12.765625 -15.445312 11.796875 -15.84375 10.546875 -15.84375 C 9.710938 -15.84375 8.984375 -15.695312 8.359375 -15.40625 C 7.734375 -15.113281 7.195312 -14.769531 6.75 -14.375 C 6.3125 -13.988281 5.976562 -13.648438 5.75 -13.359375 C 5.53125 -13.066406 5.421875 -12.921875 5.421875 -12.921875 L 5.421875 0 L 0.421875 0 L 0.421875 -20.421875 L 5 -20.421875 L 5.421875 -17.890625 C 7.035156 -19.722656 9.117188 -20.640625 11.671875 -20.640625 C 13.203125 -20.640625 14.554688 -20.265625 15.734375 -19.515625 C 16.921875 -18.765625 17.832031 -17.75 18.46875 -16.46875 C 20.21875 -19.25 22.648438 -20.640625 25.765625 -20.640625 C 27.296875 -20.640625 28.644531 -20.269531 29.8125 -19.53125 C 30.976562 -18.789062 31.898438 -17.773438 32.578125 -16.484375 C 33.253906 -15.191406 33.59375 -13.726562 33.59375 -12.09375 Z M 33.59375 -12.09375 "/></g></g></g><g fill="#000000" fill-opacity="1"><g transform="translate(65.529259, 41.393379)"><g><path d="M 16.765625 -10.125 C 16.765625 -11.875 16.195312 -13.265625 15.0625 -14.296875 C 13.9375 -15.328125 12.570312 -15.84375 10.96875 -15.84375 C 9.40625 -15.84375 8.066406 -15.328125 6.953125 -14.296875 C 5.847656 -13.265625 5.296875 -11.875 5.296875 -10.125 C 5.296875 -8.40625 5.847656 -7.03125 6.953125 -6 C 8.066406 -4.96875 9.40625 -4.453125 10.96875 -4.453125 C 12.570312 -4.453125 13.9375 -4.96875 15.0625 -6 C 16.195312 -7.03125 16.765625 -8.40625 16.765625 -10.125 Z M 16.765625 -18.015625 L 16.765625 -20.421875 L 21.765625 -20.421875 L 21.765625 0 L 17.171875 0 L 16.796875 -2.328125 C 15.929688 -1.472656 14.953125 -0.816406 13.859375 -0.359375 C 12.765625 0.0976562 11.617188 0.328125 10.421875 0.328125 C 8.554688 0.328125 6.863281 -0.117188 5.34375 -1.015625 C 3.832031 -1.921875 2.632812 -3.160156 1.75 -4.734375 C 0.863281 -6.304688 0.421875 -8.101562 0.421875 -10.125 C 0.421875 -12.1875 0.863281 -14 1.75 -15.5625 C 2.632812 -17.132812 3.832031 -18.375 5.34375 -19.28125 C 6.863281 -20.1875 8.554688 -20.640625 10.421875 -20.640625 C 12.890625 -20.640625 15.003906 -19.765625 16.765625 -18.015625 Z M 16.765625 -18.015625 "/></g></g></g><g fill="#000000" fill-opacity="1"><g transform="translate(87.917412, 41.393379)"><g><path d="M 12.046875 -20.640625 L 12.046875 -15.671875 L 11 -15.671875 C 10.03125 -15.671875 9.191406 -15.53125 8.484375 -15.25 C 7.773438 -14.976562 7.195312 -14.660156 6.75 -14.296875 C 6.3125 -13.929688 5.976562 -13.609375 5.75 -13.328125 C 5.53125 -13.054688 5.421875 -12.921875 5.421875 -12.921875 L 5.421875 0 L 0.421875 0 L 0.421875 -20.421875 L 5 -20.421875 L 5.421875 -17.671875 C 6.222656 -18.617188 7.191406 -19.347656 8.328125 -19.859375 C 9.472656 -20.378906 10.710938 -20.640625 12.046875 -20.640625 Z M 12.046875 -20.640625 "/></g></g></g><g fill="#000000" fill-opacity="1"><g transform="translate(100.424767, 41.393379)"><g><path d="M 1.671875 -15.625 L 0.421875 -15.625 L 0.421875 -20.421875 L 1.671875 -20.421875 L 2.078125 -24.890625 L 6.671875 -24.890625 L 6.671875 -20.421875 L 10.09375 -20.421875 L 10.09375 -15.625 L 6.671875 -15.625 L 6.671875 -7.84375 C 6.671875 -6.726562 6.878906 -5.941406 7.296875 -5.484375 C 7.710938 -5.023438 8.4375 -4.796875 9.46875 -4.796875 L 10.296875 -4.796875 L 10.296875 0 L 8.796875 0 C 6.515625 0 4.753906 -0.671875 3.515625 -2.015625 C 2.285156 -3.367188 1.671875 -5.3125 1.671875 -7.84375 Z M 1.671875 -15.625 "/></g></g></g><g fill="#000000" fill-opacity="1"><g transform="translate(111.139397, 41.393379)"><g/></g></g><g fill="#000000" fill-opacity="1"><g transform="translate(119.686084, 41.393379)"><g><path d="M 9.921875 -10.046875 L 15.84375 -10.046875 L 12.875 -18.21875 Z M 17.515625 -5.46875 L 8.25 -5.46875 L 6.25 0 L 0.828125 0 L 10.375 -26.265625 L 15.375 -26.265625 L 24.921875 0 L 19.515625 0 Z M 17.515625 -5.46875 "/></g></g></g><g fill="#000000" fill-opacity="1"><g transform="translate(142.94976, 41.393379)"><g><path d="M 21.140625 -11.921875 L 16.046875 -11.84375 C 15.742188 -13.0625 15.140625 -14.019531 14.234375 -14.71875 C 13.328125 -15.414062 12.25 -15.765625 11 -15.765625 C 9.476562 -15.765625 8.164062 -15.257812 7.0625 -14.25 C 5.96875 -13.25 5.421875 -11.890625 5.421875 -10.171875 C 5.421875 -8.453125 5.96875 -7.082031 7.0625 -6.0625 C 8.164062 -5.050781 9.476562 -4.546875 11 -4.546875 C 12.28125 -4.546875 13.367188 -4.898438 14.265625 -5.609375 C 15.171875 -6.316406 15.796875 -7.3125 16.140625 -8.59375 L 21.171875 -8.59375 C 21.003906 -6.84375 20.445312 -5.289062 19.5 -3.9375 C 18.5625 -2.59375 17.347656 -1.546875 15.859375 -0.796875 C 14.367188 -0.046875 12.75 0.328125 11 0.328125 C 9.0625 0.328125 7.289062 -0.117188 5.6875 -1.015625 C 4.09375 -1.921875 2.820312 -3.160156 1.875 -4.734375 C 0.925781 -6.304688 0.453125 -8.101562 0.453125 -10.125 C 0.453125 -12.1875 0.925781 -14 1.875 -15.5625 C 2.820312 -17.132812 4.09375 -18.375 5.6875 -19.28125 C 7.289062 -20.1875 9.0625 -20.640625 11 -20.640625 C 12.78125 -20.640625 14.40625 -20.265625 15.875 -19.515625 C 17.351562 -18.765625 18.5625 -17.726562 19.5 -16.40625 C 20.445312 -15.082031 20.992188 -13.585938 21.140625 -11.921875 Z M 21.140625 -11.921875 "/></g></g></g><g fill="#000000" fill-opacity="1"><g transform="translate(164.170566, 41.393379)"><g><path d="M 21.140625 -11.921875 L 16.046875 -11.84375 C 15.742188 -13.0625 15.140625 -14.019531 14.234375 -14.71875 C 13.328125 -15.414062 12.25 -15.765625 11 -15.765625 C 9.476562 -15.765625 8.164062 -15.257812 7.0625 -14.25 C 5.96875 -13.25 5.421875 -11.890625 5.421875 -10.171875 C 5.421875 -8.453125 5.96875 -7.082031 7.0625 -6.0625 C 8.164062 -5.050781 9.476562 -4.546875 11 -4.546875 C 12.28125 -4.546875 13.367188 -4.898438 14.265625 -5.609375 C 15.171875 -6.316406 15.796875 -7.3125 16.140625 -8.59375 L 21.171875 -8.59375 C 21.003906 -6.84375 20.445312 -5.289062 19.5 -3.9375 C 18.5625 -2.59375 17.347656 -1.546875 15.859375 -0.796875 C 14.367188 -0.046875 12.75 0.328125 11 0.328125 C 9.0625 0.328125 7.289062 -0.117188 5.6875 -1.015625 C 4.09375 -1.921875 2.820312 -3.160156 1.875 -4.734375 C 0.925781 -6.304688 0.453125 -8.101562 0.453125 -10.125 C 0.453125 -12.1875 0.925781 -14 1.875 -15.5625 C 2.820312 -17.132812 4.09375 -18.375 5.6875 -19.28125 C 7.289062 -20.1875 9.0625 -20.640625 11 -20.640625 C 12.78125 -20.640625 14.40625 -20.265625 15.875 -19.515625 C 17.351562 -18.765625 18.5625 -17.726562 19.5 -16.40625 C 20.445312 -15.082031 20.992188 -13.585938 21.140625 -11.921875 Z M 21.140625 -11.921875 "/></g></g></g><g fill="#000000" fill-opacity="1"><g transform="translate(185.391371, 41.393379)"><g><path d="M 0.453125 -10.125 C 0.453125 -12.1875 0.925781 -14 1.875 -15.5625 C 2.820312 -17.132812 4.09375 -18.375 5.6875 -19.28125 C 7.289062 -20.1875 9.0625 -20.640625 11 -20.640625 C 12.914062 -20.640625 14.671875 -20.1875 16.265625 -19.28125 C 17.867188 -18.375 19.144531 -17.132812 20.09375 -15.5625 C 21.039062 -14 21.515625 -12.1875 21.515625 -10.125 C 21.515625 -8.101562 21.039062 -6.304688 20.09375 -4.734375 C 19.144531 -3.160156 17.867188 -1.921875 16.265625 -1.015625 C 14.671875 -0.117188 12.914062 0.328125 11 0.328125 C 9.0625 0.328125 7.289062 -0.117188 5.6875 -1.015625 C 4.09375 -1.921875 2.820312 -3.160156 1.875 -4.734375 C 0.925781 -6.304688 0.453125 -8.101562 0.453125 -10.125 Z M 5.421875 -10.171875 C 5.421875 -8.453125 5.96875 -7.082031 7.0625 -6.0625 C 8.164062 -5.050781 9.476562 -4.546875 11 -4.546875 C 12.5 -4.546875 13.789062 -5.050781 14.875 -6.0625 C 15.96875 -7.082031 16.515625 -8.453125 16.515625 -10.171875 C 16.515625 -11.890625 15.96875 -13.25 14.875 -14.25 C 13.789062 -15.257812 12.5 -15.765625 11 -15.765625 C 9.476562 -15.765625 8.164062 -15.257812 7.0625 -14.25 C 5.96875 -13.25 5.421875 -11.890625 5.421875 -10.171875 Z M 5.421875 -10.171875 "/></g></g></g><g fill="#000000" fill-opacity="1"><g transform="translate(207.320924, 41.393379)"><g><path d="M 0.453125 -8.21875 L 0.453125 -20.421875 L 5.421875 -20.421875 L 5.421875 -9.421875 C 5.421875 -7.703125 5.785156 -6.441406 6.515625 -5.640625 C 7.253906 -4.847656 8.304688 -4.453125 9.671875 -4.453125 C 10.554688 -4.453125 11.347656 -4.601562 12.046875 -4.90625 C 12.742188 -5.21875 13.328125 -5.578125 13.796875 -5.984375 C 14.265625 -6.390625 14.625 -6.742188 14.875 -7.046875 C 15.125 -7.347656 15.25 -7.5 15.25 -7.5 L 15.25 -20.421875 L 20.265625 -20.421875 L 20.265625 0 L 15.890625 0 L 15.34375 -2.703125 C 14.476562 -1.734375 13.488281 -0.984375 12.375 -0.453125 C 11.269531 0.0664062 10.019531 0.328125 8.625 0.328125 C 7.039062 0.328125 5.632812 -0.0351562 4.40625 -0.765625 C 3.1875 -1.503906 2.222656 -2.519531 1.515625 -3.8125 C 0.804688 -5.101562 0.453125 -6.570312 0.453125 -8.21875 Z M 0.453125 -8.21875 "/></g></g></g><g fill="#000000" fill-opacity="1"><g transform="translate(228.208202, 41.393379)"><g><path d="M 20.21875 -12.09375 L 20.21875 0 L 15.25 0 L 15.25 -10.84375 C 15.25 -12.59375 14.890625 -13.863281 14.171875 -14.65625 C 13.453125 -15.445312 12.394531 -15.84375 11 -15.84375 C 10.113281 -15.84375 9.320312 -15.695312 8.625 -15.40625 C 7.9375 -15.113281 7.351562 -14.769531 6.875 -14.375 C 6.40625 -13.988281 6.046875 -13.648438 5.796875 -13.359375 C 5.546875 -13.066406 5.421875 -12.921875 5.421875 -12.921875 L 5.421875 0 L 0.421875 0 L 0.421875 -20.421875 L 5 -20.421875 L 5.421875 -17.71875 C 7.117188 -19.664062 9.328125 -20.640625 12.046875 -20.640625 C 13.628906 -20.640625 15.03125 -20.269531 16.25 -19.53125 C 17.476562 -18.789062 18.445312 -17.773438 19.15625 -16.484375 C 19.863281 -15.191406 20.21875 -13.726562 20.21875 -12.09375 Z M 20.21875 -12.09375 "/></g></g></g><g fill="#000000" fill-opacity="1"><g transform="translate(248.470115, 41.393379)"><g><path d="M 1.671875 -15.625 L 0.421875 -15.625 L 0.421875 -20.421875 L 1.671875 -20.421875 L 2.078125 -24.890625 L 6.671875 -24.890625 L 6.671875 -20.421875 L 10.09375 -20.421875 L 10.09375 -15.625 L 6.671875 -15.625 L 6.671875 -7.84375 C 6.671875 -6.726562 6.878906 -5.941406 7.296875 -5.484375 C 7.710938 -5.023438 8.4375 -4.796875 9.46875 -4.796875 L 10.296875 -4.796875 L 10.296875 0 L 8.796875 0 C 6.515625 0 4.753906 -0.671875 3.515625 -2.015625 C 2.285156 -3.367188 1.671875 -5.3125 1.671875 -7.84375 Z M 1.671875 -15.625 "/></g></g></g><g fill="#000000" fill-opacity="1"><g transform="translate(259.184745, 41.393379)"><g/></g></g><g fill="#000000" fill-opacity="1"><g transform="translate(267.731421, 41.393379)"><g><path d="M 20.796875 0 L 14.546875 0 L 7.09375 -10.46875 L 5.84375 -8.96875 L 5.84375 0 L 0.828125 0 L 0.828125 -26.265625 L 5.84375 -26.265625 L 5.84375 -16.390625 L 14.125 -26.265625 L 20.390625 -26.265625 L 10.375 -14.375 Z M 20.796875 0 "/></g></g></g><g fill="#000000" fill-opacity="1"><g transform="translate(288.53534, 41.393379)"><g><path d="M 0.453125 -23.84375 C 0.453125 -24.59375 0.722656 -25.238281 1.265625 -25.78125 C 1.804688 -26.320312 2.453125 -26.59375 3.203125 -26.59375 C 3.953125 -26.59375 4.59375 -26.320312 5.125 -25.78125 C 5.65625 -25.238281 5.921875 -24.59375 5.921875 -23.84375 C 5.921875 -23.09375 5.65625 -22.445312 5.125 -21.90625 C 4.59375 -21.363281 3.953125 -21.09375 3.203125 -21.09375 C 2.453125 -21.09375 1.804688 -21.363281 1.265625 -21.90625 C 0.722656 -22.445312 0.453125 -23.09375 0.453125 -23.84375 Z M 0.703125 0 L 0.703125 -20.421875 L 5.71875 -20.421875 L 5.71875 0 Z M 0.703125 0 "/></g></g></g><g fill="#000000" fill-opacity="1"><g transform="translate(294.74732, 41.393379)"><g><path d="M 1.671875 -15.625 L 0.421875 -15.625 L 0.421875 -20.421875 L 1.671875 -20.421875 L 2.078125 -24.890625 L 6.671875 -24.890625 L 6.671875 -20.421875 L 10.09375 -20.421875 L 10.09375 -15.625 L 6.671875 -15.625 L 6.671875 -7.84375 C 6.671875 -6.726562 6.878906 -5.941406 7.296875 -5.484375 C 7.710938 -5.023438 8.4375 -4.796875 9.46875 -4.796875 L 10.296875 -4.796875 L 10.296875 0 L 8.796875 0 C 6.515625 0 4.753906 -0.671875 3.515625 -2.015625 C 2.285156 -3.367188 1.671875 -5.3125 1.671875 -7.84375 Z M 1.671875 -15.625 "/></g></g></g></svg>